HIERARCHY
ROOT root
{
	OFFSET 0.000000 0.000000 0.000000
	CHANNELS 6 Xposition Yposition Zposition Zrotation Yrotation Xrotation
	JOINT lhip
	{
		OFFSET 0.058581 -0.082280 -0.017664
		CHANNELS 3 Zrotation Yrotation Xrotation
		JOINT lknee
		{
			OFFSET 0.043451 -0.386469 0.008037
			CHANNELS 3 Zrotation Yrotation Xrotation
			JOINT lankle
			{
				OFFSET -0.014790 -0.426874 -0.037428
				CHANNELS 3 Zrotation Yrotation Xrotation
				JOINT ltoe
				{
					OFFSET 0.041054 -0.060286 0.122042
					CHANNELS 3 Zrotation Yrotation Xrotation
					End Site
					{
						OFFSET 0.000000 0.000000 0.000000
					}
				}
			}
		}
	}
	JOINT rhip
	{
		OFFSET -0.060310 -0.090513 -0.013543
		CHANNELS 3 Zrotation Yrotation Xrotation
		JOINT rknee
		{
			OFFSET -0.043257 -0.383688 -0.004843
			CHANNELS 3 Zrotation Yrotation Xrotation
			JOINT rankle
			{
				OFFSET 0.019056 -0.420046 -0.034562
				CHANNELS 3 Zrotation Yrotation Xrotation
				JOINT rtoe
				{
					OFFSET -0.034840 -0.062106 0.130323
					CHANNELS 3 Zrotation Yrotation Xrotation
					End Site
					{
						OFFSET 0.000000 0.000000 0.000000
					}
				}
			}
		}
	}
	JOINT lowerback
	{
		OFFSET 0.004439 0.124404 -0.038385
		CHANNELS 3 Zrotation Yrotation Xrotation
		JOINT upperback
		{
			OFFSET 0.004488 0.137956 0.026820
			CHANNELS 3 Zrotation Yrotation Xrotation
			JOINT chest
			{
				OFFSET -0.002265 0.056032 0.002855
				CHANNELS 3 Zrotation Yrotation Xrotation
				JOINT lowerneck
				{
					OFFSET -0.013390 0.211636 -0.033468
					CHANNELS 3 Zrotation Yrotation Xrotation
					JOINT upperneck
					{
						OFFSET 0.010113 0.088937 0.050410
						CHANNELS 3 Zrotation Yrotation Xrotation
						End Site
						{
							OFFSET 0.000000 0.000000 0.000000
						}
					}
				}
				JOINT lclavicle
				{
					OFFSET 0.071702 0.114000 -0.018898
					CHANNELS 3 Zrotation Yrotation Xrotation
					JOINT lshoulder
					{
						OFFSET 0.122921 0.045205 -0.019046
						CHANNELS 3 Zrotation Yrotation Xrotation
						JOINT lelbow
						{
							OFFSET 0.255332 -0.015649 -0.022946
							CHANNELS 3 Zrotation Yrotation Xrotation
							JOINT lwrist
							{
								OFFSET 0.265709 0.012698 -0.007375
								CHANNELS 3 Zrotation Yrotation Xrotation
								End Site
								{
									OFFSET 0.000000 0.000000 0.000000
								}
							}
						}
					}
				}
				JOINT rclavicle
				{
					OFFSET -0.082954 0.112472 -0.023707
					CHANNELS 3 Zrotation Yrotation Xrotation
					JOINT rshoulder
					{
						OFFSET -0.113228 0.046853 -0.008472
						CHANNELS 3 Zrotation Yrotation Xrotation
						JOINT relbow
						{
							OFFSET -0.260127 -0.014369 -0.031269
							CHANNELS 3 Zrotation Yrotation Xrotation
							JOINT rwrist
							{
								OFFSET -0.269108 0.006794 -0.006027
								CHANNELS 3 Zrotation Yrotation Xrotation
								End Site
								{
									OFFSET 0.000000 0.000000 0.000000
								}
							}
						}
					}
				}
			}
		}
	}
}
MOTION
Frames: 7
Frame Time: 0.033333
-0.765838 -1.548329 0.946961 176.775841 -1.658459 110.851291 2.965655 -9.756955 15.217186 -5.739333 -22.392664 12.104113 -0.499516 17.084961 8.280317 0.000000 -0.000000 0.000000 -13.988868 12.836067 -67.828610 5.368668 -17.700176 39.860985 -2.776906 -14.691063 -5.717681 0.000000 -0.000000 0.000000 0.203821 -15.148338 -2.025655 10.504557 0.948682 -0.317498 -0.625438 -8.853648 10.604957 6.095052 10.437305 -10.193926 -10.381280 -10.091432 -0.026279 -13.912207 12.168630 9.706683 -57.186432 -3.981371 22.118576 -155.065296 -79.737978 -179.867815 17.788350 -10.808576 -22.905311 24.366757 -13.380252 -9.374842 56.822888 17.046302 14.804174 -100.894538 48.482830 -87.762377 -3.620608 6.394189 -26.564960 
-0.748841 -1.404581 0.943854 175.414530 -2.035234 110.298876 5.405602 0.421351 10.760150 -8.355637 -5.821285 31.897929 -14.243879 14.343242 10.752487 0.000000 -0.000000 0.000000 -8.746804 11.008854 -60.910687 3.340521 -17.150383 25.296143 -3.406444 -13.039184 -4.594568 0.000000 -0.000000 0.000000 2.024144 -13.933550 -2.432506 10.985710 -1.562288 -1.027180 -1.280051 -8.825344 10.865524 4.093971 11.532210 -10.285930 -11.400315 -6.032779 -0.553294 -15.386759 13.221715 9.961710 -55.251662 3.915519 19.150347 -111.033590 -81.435677 133.879925 24.666478 -9.221914 -17.342756 25.625306 -12.864189 -10.045942 59.585997 19.724051 17.309736 -118.984444 50.727869 -99.406225 -5.638908 7.273185 -14.750924 
-0.733802 -1.259595 0.933504 173.252103 -1.989786 107.626574 6.839287 4.340769 7.644021 -5.057165 3.642529 58.050047 -9.358607 3.402815 -1.057217 0.000000 -0.000000 0.000000 -3.111392 7.548188 -52.210216 3.475941 -17.619581 23.638643 -3.254065 -13.171818 -3.058098 0.000000 -0.000000 0.000000 3.911346 -11.867872 0.966129 10.926507 -2.796835 -1.812508 -0.743762 -8.623465 8.762181 1.570725 6.216079 -8.043776 -11.538908 2.826665 -4.725612 -17.949659 11.304761 12.356107 -56.001604 12.056274 13.882948 -56.623035 -74.779342 76.491325 21.234134 -8.261778 -15.991780 22.973973 -8.380085 -10.250682 57.862519 22.150495 18.958857 -138.562737 52.022297 -113.465716 -3.782193 9.021074 4.344918 
-0.715008 -1.084231 0.919952 168.399186 -3.525981 99.392430 4.527868 6.462452 7.656356 -4.318550 6.440971 81.469122 -1.140791 14.829211 -5.236517 0.000000 -0.000000 0.000000 0.342277 2.386558 -38.415518 5.758211 -13.924370 38.256712 -11.177442 -14.261361 -16.321417 0.000000 -0.000000 0.000000 3.115405 -7.200251 11.428395 9.403444 -3.015833 -0.086192 0.500096 -7.350747 3.919876 0.863944 2.366242 -9.093767 -11.487710 7.159779 -6.196122 -22.809813 6.296235 11.317589 -54.825645 24.177608 10.312872 -34.228676 -59.499903 52.111339 21.476825 -7.824955 -6.449378 20.125031 1.945415 -10.989058 42.375484 22.454134 15.579640 -158.528710 55.137954 -132.171359 -3.855671 11.029887 14.375907 
-0.701066 -0.990711 0.911092 165.033306 -2.925779 98.070784 4.538412 6.362367 -0.257284 -5.113792 8.740562 94.761567 1.911420 12.258353 -7.857741 0.000000 -0.000000 0.000000 1.519836 3.077494 -33.664791 5.825172 -11.617987 46.120543 -10.920776 -15.711988 -24.500172 0.000000 -0.000000 0.000000 3.752239 -4.393178 14.613658 8.094790 -1.102972 1.143943 0.962664 -5.165744 2.845896 2.504627 0.415745 -13.717811 -10.516419 6.696927 -5.887493 -23.540905 4.130260 9.868382 -54.675839 28.462009 9.026361 -26.250415 -48.565136 46.808270 19.044732 -9.276446 -0.393861 16.681205 6.450712 -9.644623 35.258500 20.610588 11.900356 -160.795422 59.077856 -133.433005 -3.707968 12.184401 13.474842 
-0.678743 -0.859767 0.910777 162.528499 -3.380205 96.881390 4.855799 3.449798 -14.073778 -6.832349 11.480713 102.032791 1.720499 10.908206 -9.503464 0.000000 -0.000000 0.000000 1.585182 -0.267023 -19.614106 7.526400 -6.258135 42.641057 -10.363718 -15.527762 -31.190828 0.000000 -0.000000 0.000000 4.564110 0.975140 15.606355 6.136533 -0.345962 3.797916 0.101337 -1.946960 1.990704 3.742795 -2.797943 -15.829262 -6.611529 3.283164 -7.784344 -24.879587 2.761929 9.372482 -49.984675 32.321142 8.320431 -22.389425 -41.206731 42.199894 15.346413 -9.445211 5.287357 16.602348 8.701591 -7.401907 29.823166 15.653508 7.174080 -154.451679 73.089514 -130.567165 0.304941 11.652909 13.770924 
-0.651239 -0.723349 0.922899 160.962963 -5.438026 98.137588 5.829271 -0.557150 -28.543948 -6.031870 14.944122 98.369938 3.752566 13.083225 -9.829667 0.000000 -0.000000 0.000000 -1.881496 -4.293158 -6.172803 9.372011 1.945943 34.525888 -5.441524 -13.909676 -28.530089 0.000000 -0.000000 0.000000 0.722249 8.242235 12.958977 5.802740 0.278514 2.382565 1.324365 -0.172603 2.421912 4.687093 -7.205218 -14.747679 -3.418480 -1.310244 -5.790434 -24.438239 6.261323 10.912645 -42.292805 35.114639 11.293225 -27.082342 -43.207648 42.622868 19.069390 -8.276372 1.361458 20.004051 8.289932 -5.807337 26.209781 13.190581 7.332096 -33.078533 81.016178 -12.018860 7.572167 5.841519 25.865499 
